<?xml version="1.0" encoding="utf-8" standalone="no"?>
<!DOCTYPE svg PUBLIC "-//W3C//DTD SVG 1.1//EN"
  "http://www.w3.org/Graphics/SVG/1.1/DTD/svg11.dtd">
<svg xmlns:xlink="http://www.w3.org/1999/xlink" width="576pt" height="324pt" viewBox="0 0 576 324" xmlns="http://www.w3.org/2000/svg" version="1.1">
 <metadata>
  <rdf:RDF xmlns:dc="http://purl.org/dc/elements/1.1/" xmlns:cc="http://creativecommons.org/ns#" xmlns:rdf="http://www.w3.org/1999/02/22-rdf-syntax-ns#">
   <cc:Work>
    <dc:type rdf:resource="http://purl.org/dc/dcmitype/StillImage"/>
    <dc:date>2026-05-12T11:23:41.910110</dc:date>
    <dc:format>image/svg+xml</dc:format>
    <dc:creator>
     <cc:Agent>
      <dc:title>Matplotlib v3.10.9, https://matplotlib.org/</dc:title>
     </cc:Agent>
    </dc:creator>
   </cc:Work>
  </rdf:RDF>
 </metadata>
 <defs>
  <style type="text/css">*{stroke-linejoin: round; stroke-linecap: butt}</style>
 </defs>
 <g id="figure_1">
  <g id="patch_1">
   <path d="M 0 324 
L 576 324 
L 576 0 
L 0 0 
z
" style="fill: #ffffff"/>
  </g>
  <g id="axes_1">
   <g id="patch_2">
    <path d="M 65.54 282.04 
L 562.662448 282.04 
L 562.662448 26.88 
L 65.54 26.88 
z
" style="fill: #ffffff"/>
   </g>
   <g id="matplotlib.axis_1">
    <g id="xtick_1">
     <g id="line2d_1">
      <path d="M 84.93422 282.04 
L 84.93422 26.88 
" clip-path="url(#p171a3db544)" style="fill: none; stroke: #b0b0b0; stroke-opacity: 0.3; stroke-width: 0.8; stroke-linecap: square"/>
     </g>
     <g id="line2d_2">
      <defs>
       <path id="maaa1d6a514" d="M 0 0 
L 0 3.5 
" style="stroke: #000000; stroke-width: 0.8"/>
      </defs>
      <g>
       <use xlink:href="#maaa1d6a514" x="84.93422" y="282.04" style="stroke: #000000; stroke-width: 0.8"/>
      </g>
     </g>
     <g id="text_1">
      <!-- 0 -->
      <g transform="translate(81.75297 296.638438) scale(0.1 -0.1)">
       <defs>
        <path id="DejaVuSans-30" d="M 2034 4250 
Q 1547 4250 1301 3770 
Q 1056 3291 1056 2328 
Q 1056 1369 1301 889 
Q 1547 409 2034 409 
Q 2525 409 2770 889 
Q 3016 1369 3016 2328 
Q 3016 3291 2770 3770 
Q 2525 4250 2034 4250 
z
M 2034 4750 
Q 2819 4750 3233 4129 
Q 3647 3509 3647 2328 
Q 3647 1150 3233 529 
Q 2819 -91 2034 -91 
Q 1250 -91 836 529 
Q 422 1150 422 2328 
Q 422 3509 836 4129 
Q 1250 4750 2034 4750 
z
" transform="scale(0.015625)"/>
       </defs>
       <use xlink:href="#DejaVuSans-30"/>
      </g>
     </g>
    </g>
    <g id="xtick_2">
     <g id="line2d_3">
      <path d="M 152.582544 282.04 
L 152.582544 26.88 
" clip-path="url(#p171a3db544)" style="fill: none; stroke: #b0b0b0; stroke-opacity: 0.3; stroke-width: 0.8; stroke-linecap: square"/>
     </g>
     <g id="line2d_4">
      <g>
       <use xlink:href="#maaa1d6a514" x="152.582544" y="282.04" style="stroke: #000000; stroke-width: 0.8"/>
      </g>
     </g>
     <g id="text_2">
      <!-- 10 -->
      <g transform="translate(146.220044 296.638438) scale(0.1 -0.1)">
       <defs>
        <path id="DejaVuSans-31" d="M 794 531 
L 1825 531 
L 1825 4091 
L 703 3866 
L 703 4441 
L 1819 4666 
L 2450 4666 
L 2450 531 
L 3481 531 
L 3481 0 
L 794 0 
L 794 531 
z
" transform="scale(0.015625)"/>
       </defs>
       <use xlink:href="#DejaVuSans-31"/>
       <use xlink:href="#DejaVuSans-30" transform="translate(63.623047 0)"/>
      </g>
     </g>
    </g>
    <g id="xtick_3">
     <g id="line2d_5">
      <path d="M 220.230869 282.04 
L 220.230869 26.88 
" clip-path="url(#p171a3db544)" style="fill: none; stroke: #b0b0b0; stroke-opacity: 0.3; stroke-width: 0.8; stroke-linecap: square"/>
     </g>
     <g id="line2d_6">
      <g>
       <use xlink:href="#maaa1d6a514" x="220.230869" y="282.04" style="stroke: #000000; stroke-width: 0.8"/>
      </g>
     </g>
     <g id="text_3">
      <!-- 20 -->
      <g transform="translate(213.868369 296.638438) scale(0.1 -0.1)">
       <defs>
        <path id="DejaVuSans-32" d="M 1228 531 
L 3431 531 
L 3431 0 
L 469 0 
L 469 531 
Q 828 903 1448 1529 
Q 2069 2156 2228 2338 
Q 2531 2678 2651 2914 
Q 2772 3150 2772 3378 
Q 2772 3750 2511 3984 
Q 2250 4219 1831 4219 
Q 1534 4219 1204 4116 
Q 875 4013 500 3803 
L 500 4441 
Q 881 4594 1212 4672 
Q 1544 4750 1819 4750 
Q 2544 4750 2975 4387 
Q 3406 4025 3406 3419 
Q 3406 3131 3298 2873 
Q 3191 2616 2906 2266 
Q 2828 2175 2409 1742 
Q 1991 1309 1228 531 
z
" transform="scale(0.015625)"/>
       </defs>
       <use xlink:href="#DejaVuSans-32"/>
       <use xlink:href="#DejaVuSans-30" transform="translate(63.623047 0)"/>
      </g>
     </g>
    </g>
    <g id="xtick_4">
     <g id="line2d_7">
      <path d="M 287.879193 282.04 
L 287.879193 26.88 
" clip-path="url(#p171a3db544)" style="fill: none; stroke: #b0b0b0; stroke-opacity: 0.3; stroke-width: 0.8; stroke-linecap: square"/>
     </g>
     <g id="line2d_8">
      <g>
       <use xlink:href="#maaa1d6a514" x="287.879193" y="282.04" style="stroke: #000000; stroke-width: 0.8"/>
      </g>
     </g>
     <g id="text_4">
      <!-- 30 -->
      <g transform="translate(281.516693 296.638438) scale(0.1 -0.1)">
       <defs>
        <path id="DejaVuSans-33" d="M 2597 2516 
Q 3050 2419 3304 2112 
Q 3559 1806 3559 1356 
Q 3559 666 3084 287 
Q 2609 -91 1734 -91 
Q 1441 -91 1130 -33 
Q 819 25 488 141 
L 488 750 
Q 750 597 1062 519 
Q 1375 441 1716 441 
Q 2309 441 2620 675 
Q 2931 909 2931 1356 
Q 2931 1769 2642 2001 
Q 2353 2234 1838 2234 
L 1294 2234 
L 1294 2753 
L 1863 2753 
Q 2328 2753 2575 2939 
Q 2822 3125 2822 3475 
Q 2822 3834 2567 4026 
Q 2313 4219 1838 4219 
Q 1578 4219 1281 4162 
Q 984 4106 628 3988 
L 628 4550 
Q 988 4650 1302 4700 
Q 1616 4750 1894 4750 
Q 2613 4750 3031 4423 
Q 3450 4097 3450 3541 
Q 3450 3153 3228 2886 
Q 3006 2619 2597 2516 
z
" transform="scale(0.015625)"/>
       </defs>
       <use xlink:href="#DejaVuSans-33"/>
       <use xlink:href="#DejaVuSans-30" transform="translate(63.623047 0)"/>
      </g>
     </g>
    </g>
    <g id="xtick_5">
     <g id="line2d_9">
      <path d="M 355.527517 282.04 
L 355.527517 26.88 
" clip-path="url(#p171a3db544)" style="fill: none; stroke: #b0b0b0; stroke-opacity: 0.3; stroke-width: 0.8; stroke-linecap: square"/>
     </g>
     <g id="line2d_10">
      <g>
       <use xlink:href="#maaa1d6a514" x="355.527517" y="282.04" style="stroke: #000000; stroke-width: 0.8"/>
      </g>
     </g>
     <g id="text_5">
      <!-- 40 -->
      <g transform="translate(349.165017 296.638438) scale(0.1 -0.1)">
       <defs>
        <path id="DejaVuSans-34" d="M 2419 4116 
L 825 1625 
L 2419 1625 
L 2419 4116 
z
M 2253 4666 
L 3047 4666 
L 3047 1625 
L 3713 1625 
L 3713 1100 
L 3047 1100 
L 3047 0 
L 2419 0 
L 2419 1100 
L 313 1100 
L 313 1709 
L 2253 4666 
z
" transform="scale(0.015625)"/>
       </defs>
       <use xlink:href="#DejaVuSans-34"/>
       <use xlink:href="#DejaVuSans-30" transform="translate(63.623047 0)"/>
      </g>
     </g>
    </g>
    <g id="xtick_6">
     <g id="line2d_11">
      <path d="M 423.175841 282.04 
L 423.175841 26.88 
" clip-path="url(#p171a3db544)" style="fill: none; stroke: #b0b0b0; stroke-opacity: 0.3; stroke-width: 0.8; stroke-linecap: square"/>
     </g>
     <g id="line2d_12">
      <g>
       <use xlink:href="#maaa1d6a514" x="423.175841" y="282.04" style="stroke: #000000; stroke-width: 0.8"/>
      </g>
     </g>
     <g id="text_6">
      <!-- 50 -->
      <g transform="translate(416.813341 296.638438) scale(0.1 -0.1)">
       <defs>
        <path id="DejaVuSans-35" d="M 691 4666 
L 3169 4666 
L 3169 4134 
L 1269 4134 
L 1269 2991 
Q 1406 3038 1543 3061 
Q 1681 3084 1819 3084 
Q 2600 3084 3056 2656 
Q 3513 2228 3513 1497 
Q 3513 744 3044 326 
Q 2575 -91 1722 -91 
Q 1428 -91 1123 -41 
Q 819 9 494 109 
L 494 744 
Q 775 591 1075 516 
Q 1375 441 1709 441 
Q 2250 441 2565 725 
Q 2881 1009 2881 1497 
Q 2881 1984 2565 2268 
Q 2250 2553 1709 2553 
Q 1456 2553 1204 2497 
Q 953 2441 691 2322 
L 691 4666 
z
" transform="scale(0.015625)"/>
       </defs>
       <use xlink:href="#DejaVuSans-35"/>
       <use xlink:href="#DejaVuSans-30" transform="translate(63.623047 0)"/>
      </g>
     </g>
    </g>
    <g id="xtick_7">
     <g id="line2d_13">
      <path d="M 490.824166 282.04 
L 490.824166 26.88 
" clip-path="url(#p171a3db544)" style="fill: none; stroke: #b0b0b0; stroke-opacity: 0.3; stroke-width: 0.8; stroke-linecap: square"/>
     </g>
     <g id="line2d_14">
      <g>
       <use xlink:href="#maaa1d6a514" x="490.824166" y="282.04" style="stroke: #000000; stroke-width: 0.8"/>
      </g>
     </g>
     <g id="text_7">
      <!-- 60 -->
      <g transform="translate(484.461666 296.638438) scale(0.1 -0.1)">
       <defs>
        <path id="DejaVuSans-36" d="M 2113 2584 
Q 1688 2584 1439 2293 
Q 1191 2003 1191 1497 
Q 1191 994 1439 701 
Q 1688 409 2113 409 
Q 2538 409 2786 701 
Q 3034 994 3034 1497 
Q 3034 2003 2786 2293 
Q 2538 2584 2113 2584 
z
M 3366 4563 
L 3366 3988 
Q 3128 4100 2886 4159 
Q 2644 4219 2406 4219 
Q 1781 4219 1451 3797 
Q 1122 3375 1075 2522 
Q 1259 2794 1537 2939 
Q 1816 3084 2150 3084 
Q 2853 3084 3261 2657 
Q 3669 2231 3669 1497 
Q 3669 778 3244 343 
Q 2819 -91 2113 -91 
Q 1303 -91 875 529 
Q 447 1150 447 2328 
Q 447 3434 972 4092 
Q 1497 4750 2381 4750 
Q 2619 4750 2861 4703 
Q 3103 4656 3366 4563 
z
" transform="scale(0.015625)"/>
       </defs>
       <use xlink:href="#DejaVuSans-36"/>
       <use xlink:href="#DejaVuSans-30" transform="translate(63.623047 0)"/>
      </g>
     </g>
    </g>
    <g id="xtick_8">
     <g id="line2d_15">
      <path d="M 558.47249 282.04 
L 558.47249 26.88 
" clip-path="url(#p171a3db544)" style="fill: none; stroke: #b0b0b0; stroke-opacity: 0.3; stroke-width: 0.8; stroke-linecap: square"/>
     </g>
     <g id="line2d_16">
      <g>
       <use xlink:href="#maaa1d6a514" x="558.47249" y="282.04" style="stroke: #000000; stroke-width: 0.8"/>
      </g>
     </g>
     <g id="text_8">
      <!-- 70 -->
      <g transform="translate(552.10999 296.638438) scale(0.1 -0.1)">
       <defs>
        <path id="DejaVuSans-37" d="M 525 4666 
L 3525 4666 
L 3525 4397 
L 1831 0 
L 1172 0 
L 2766 4134 
L 525 4134 
L 525 4666 
z
" transform="scale(0.015625)"/>
       </defs>
       <use xlink:href="#DejaVuSans-37"/>
       <use xlink:href="#DejaVuSans-30" transform="translate(63.623047 0)"/>
      </g>
     </g>
    </g>
    <g id="text_9">
     <!-- Time [s] -->
     <g transform="translate(293.772318 310.316563) scale(0.1 -0.1)">
      <defs>
       <path id="DejaVuSans-54" d="M -19 4666 
L 3928 4666 
L 3928 4134 
L 2272 4134 
L 2272 0 
L 1638 0 
L 1638 4134 
L -19 4134 
L -19 4666 
z
" transform="scale(0.015625)"/>
       <path id="DejaVuSans-69" d="M 603 3500 
L 1178 3500 
L 1178 0 
L 603 0 
L 603 3500 
z
M 603 4863 
L 1178 4863 
L 1178 4134 
L 603 4134 
L 603 4863 
z
" transform="scale(0.015625)"/>
       <path id="DejaVuSans-6d" d="M 3328 2828 
Q 3544 3216 3844 3400 
Q 4144 3584 4550 3584 
Q 5097 3584 5394 3201 
Q 5691 2819 5691 2113 
L 5691 0 
L 5113 0 
L 5113 2094 
Q 5113 2597 4934 2840 
Q 4756 3084 4391 3084 
Q 3944 3084 3684 2787 
Q 3425 2491 3425 1978 
L 3425 0 
L 2847 0 
L 2847 2094 
Q 2847 2600 2669 2842 
Q 2491 3084 2119 3084 
Q 1678 3084 1418 2786 
Q 1159 2488 1159 1978 
L 1159 0 
L 581 0 
L 581 3500 
L 1159 3500 
L 1159 2956 
Q 1356 3278 1631 3431 
Q 1906 3584 2284 3584 
Q 2666 3584 2933 3390 
Q 3200 3197 3328 2828 
z
" transform="scale(0.015625)"/>
       <path id="DejaVuSans-65" d="M 3597 1894 
L 3597 1613 
L 953 1613 
Q 991 1019 1311 708 
Q 1631 397 2203 397 
Q 2534 397 2845 478 
Q 3156 559 3463 722 
L 3463 178 
Q 3153 47 2828 -22 
Q 2503 -91 2169 -91 
Q 1331 -91 842 396 
Q 353 884 353 1716 
Q 353 2575 817 3079 
Q 1281 3584 2069 3584 
Q 2775 3584 3186 3129 
Q 3597 2675 3597 1894 
z
M 3022 2063 
Q 3016 2534 2758 2815 
Q 2500 3097 2075 3097 
Q 1594 3097 1305 2825 
Q 1016 2553 972 2059 
L 3022 2063 
z
" transform="scale(0.015625)"/>
       <path id="DejaVuSans-20" transform="scale(0.015625)"/>
       <path id="DejaVuSans-5b" d="M 550 4863 
L 1875 4863 
L 1875 4416 
L 1125 4416 
L 1125 -397 
L 1875 -397 
L 1875 -844 
L 550 -844 
L 550 4863 
z
" transform="scale(0.015625)"/>
       <path id="DejaVuSans-73" d="M 2834 3397 
L 2834 2853 
Q 2591 2978 2328 3040 
Q 2066 3103 1784 3103 
Q 1356 3103 1142 2972 
Q 928 2841 928 2578 
Q 928 2378 1081 2264 
Q 1234 2150 1697 2047 
L 1894 2003 
Q 2506 1872 2764 1633 
Q 3022 1394 3022 966 
Q 3022 478 2636 193 
Q 2250 -91 1575 -91 
Q 1294 -91 989 -36 
Q 684 19 347 128 
L 347 722 
Q 666 556 975 473 
Q 1284 391 1588 391 
Q 1994 391 2212 530 
Q 2431 669 2431 922 
Q 2431 1156 2273 1281 
Q 2116 1406 1581 1522 
L 1381 1569 
Q 847 1681 609 1914 
Q 372 2147 372 2553 
Q 372 3047 722 3315 
Q 1072 3584 1716 3584 
Q 2034 3584 2315 3537 
Q 2597 3491 2834 3397 
z
" transform="scale(0.015625)"/>
       <path id="DejaVuSans-5d" d="M 1947 4863 
L 1947 -844 
L 622 -844 
L 622 -397 
L 1369 -397 
L 1369 4416 
L 622 4416 
L 622 4863 
L 1947 4863 
z
" transform="scale(0.015625)"/>
      </defs>
      <use xlink:href="#DejaVuSans-54"/>
      <use xlink:href="#DejaVuSans-69" transform="translate(57.958984 0)"/>
      <use xlink:href="#DejaVuSans-6d" transform="translate(85.742188 0)"/>
      <use xlink:href="#DejaVuSans-65" transform="translate(183.154297 0)"/>
      <use xlink:href="#DejaVuSans-20" transform="translate(244.677734 0)"/>
      <use xlink:href="#DejaVuSans-5b" transform="translate(276.464844 0)"/>
      <use xlink:href="#DejaVuSans-73" transform="translate(315.478516 0)"/>
      <use xlink:href="#DejaVuSans-5d" transform="translate(367.578125 0)"/>
     </g>
    </g>
   </g>
   <g id="matplotlib.axis_2">
    <g id="ytick_1">
     <g id="line2d_17">
      <path d="M 65.54 280.375807 
L 562.662448 280.375807 
" clip-path="url(#p171a3db544)" style="fill: none; stroke: #b0b0b0; stroke-opacity: 0.3; stroke-width: 0.8; stroke-linecap: square"/>
     </g>
     <g id="line2d_18">
      <defs>
       <path id="me0d74050d7" d="M 0 0 
L -3.5 0 
" style="stroke: #000000; stroke-width: 0.8"/>
      </defs>
      <g>
       <use xlink:href="#me0d74050d7" x="65.54" y="280.375807" style="stroke: #000000; stroke-width: 0.8"/>
      </g>
     </g>
     <g id="text_10">
      <!-- −6000 -->
      <g transform="translate(24.710313 284.175026) scale(0.1 -0.1)">
       <defs>
        <path id="DejaVuSans-2212" d="M 678 2272 
L 4684 2272 
L 4684 1741 
L 678 1741 
L 678 2272 
z
" transform="scale(0.015625)"/>
       </defs>
       <use xlink:href="#DejaVuSans-2212"/>
       <use xlink:href="#DejaVuSans-36" transform="translate(83.789062 0)"/>
       <use xlink:href="#DejaVuSans-30" transform="translate(147.412109 0)"/>
       <use xlink:href="#DejaVuSans-30" transform="translate(211.035156 0)"/>
       <use xlink:href="#DejaVuSans-30" transform="translate(274.658203 0)"/>
      </g>
     </g>
    </g>
    <g id="ytick_2">
     <g id="line2d_19">
      <path d="M 65.54 234.344756 
L 562.662448 234.344756 
" clip-path="url(#p171a3db544)" style="fill: none; stroke: #b0b0b0; stroke-opacity: 0.3; stroke-width: 0.8; stroke-linecap: square"/>
     </g>
     <g id="line2d_20">
      <g>
       <use xlink:href="#me0d74050d7" x="65.54" y="234.344756" style="stroke: #000000; stroke-width: 0.8"/>
      </g>
     </g>
     <g id="text_11">
      <!-- −4000 -->
      <g transform="translate(24.710313 238.143975) scale(0.1 -0.1)">
       <use xlink:href="#DejaVuSans-2212"/>
       <use xlink:href="#DejaVuSans-34" transform="translate(83.789062 0)"/>
       <use xlink:href="#DejaVuSans-30" transform="translate(147.412109 0)"/>
       <use xlink:href="#DejaVuSans-30" transform="translate(211.035156 0)"/>
       <use xlink:href="#DejaVuSans-30" transform="translate(274.658203 0)"/>
      </g>
     </g>
    </g>
    <g id="ytick_3">
     <g id="line2d_21">
      <path d="M 65.54 188.313705 
L 562.662448 188.313705 
" clip-path="url(#p171a3db544)" style="fill: none; stroke: #b0b0b0; stroke-opacity: 0.3; stroke-width: 0.8; stroke-linecap: square"/>
     </g>
     <g id="line2d_22">
      <g>
       <use xlink:href="#me0d74050d7" x="65.54" y="188.313705" style="stroke: #000000; stroke-width: 0.8"/>
      </g>
     </g>
     <g id="text_12">
      <!-- −2000 -->
      <g transform="translate(24.710313 192.112924) scale(0.1 -0.1)">
       <use xlink:href="#DejaVuSans-2212"/>
       <use xlink:href="#DejaVuSans-32" transform="translate(83.789062 0)"/>
       <use xlink:href="#DejaVuSans-30" transform="translate(147.412109 0)"/>
       <use xlink:href="#DejaVuSans-30" transform="translate(211.035156 0)"/>
       <use xlink:href="#DejaVuSans-30" transform="translate(274.658203 0)"/>
      </g>
     </g>
    </g>
    <g id="ytick_4">
     <g id="line2d_23">
      <path d="M 65.54 142.282654 
L 562.662448 142.282654 
" clip-path="url(#p171a3db544)" style="fill: none; stroke: #b0b0b0; stroke-opacity: 0.3; stroke-width: 0.8; stroke-linecap: square"/>
     </g>
     <g id="line2d_24">
      <g>
       <use xlink:href="#me0d74050d7" x="65.54" y="142.282654" style="stroke: #000000; stroke-width: 0.8"/>
      </g>
     </g>
     <g id="text_13">
      <!-- 0 -->
      <g transform="translate(52.1775 146.081873) scale(0.1 -0.1)">
       <use xlink:href="#DejaVuSans-30"/>
      </g>
     </g>
    </g>
    <g id="ytick_5">
     <g id="line2d_25">
      <path d="M 65.54 96.251603 
L 562.662448 96.251603 
" clip-path="url(#p171a3db544)" style="fill: none; stroke: #b0b0b0; stroke-opacity: 0.3; stroke-width: 0.8; stroke-linecap: square"/>
     </g>
     <g id="line2d_26">
      <g>
       <use xlink:href="#me0d74050d7" x="65.54" y="96.251603" style="stroke: #000000; stroke-width: 0.8"/>
      </g>
     </g>
     <g id="text_14">
      <!-- 2000 -->
      <g transform="translate(33.09 100.050822) scale(0.1 -0.1)">
       <use xlink:href="#DejaVuSans-32"/>
       <use xlink:href="#DejaVuSans-30" transform="translate(63.623047 0)"/>
       <use xlink:href="#DejaVuSans-30" transform="translate(127.246094 0)"/>
       <use xlink:href="#DejaVuSans-30" transform="translate(190.869141 0)"/>
      </g>
     </g>
    </g>
    <g id="ytick_6">
     <g id="line2d_27">
      <path d="M 65.54 50.220552 
L 562.662448 50.220552 
" clip-path="url(#p171a3db544)" style="fill: none; stroke: #b0b0b0; stroke-opacity: 0.3; stroke-width: 0.8; stroke-linecap: square"/>
     </g>
     <g id="line2d_28">
      <g>
       <use xlink:href="#me0d74050d7" x="65.54" y="50.220552" style="stroke: #000000; stroke-width: 0.8"/>
      </g>
     </g>
     <g id="text_15">
      <!-- 4000 -->
      <g transform="translate(33.09 54.019771) scale(0.1 -0.1)">
       <use xlink:href="#DejaVuSans-34"/>
       <use xlink:href="#DejaVuSans-30" transform="translate(63.623047 0)"/>
       <use xlink:href="#DejaVuSans-30" transform="translate(127.246094 0)"/>
       <use xlink:href="#DejaVuSans-30" transform="translate(190.869141 0)"/>
      </g>
     </g>
    </g>
    <g id="text_16">
     <!-- Cost -->
     <g transform="translate(18.630625 165.575625) rotate(-90) scale(0.1 -0.1)">
      <defs>
       <path id="DejaVuSans-43" d="M 4122 4306 
L 4122 3641 
Q 3803 3938 3442 4084 
Q 3081 4231 2675 4231 
Q 1875 4231 1450 3742 
Q 1025 3253 1025 2328 
Q 1025 1406 1450 917 
Q 1875 428 2675 428 
Q 3081 428 3442 575 
Q 3803 722 4122 1019 
L 4122 359 
Q 3791 134 3420 21 
Q 3050 -91 2638 -91 
Q 1578 -91 968 557 
Q 359 1206 359 2328 
Q 359 3453 968 4101 
Q 1578 4750 2638 4750 
Q 3056 4750 3426 4639 
Q 3797 4528 4122 4306 
z
" transform="scale(0.015625)"/>
       <path id="DejaVuSans-6f" d="M 1959 3097 
Q 1497 3097 1228 2736 
Q 959 2375 959 1747 
Q 959 1119 1226 758 
Q 1494 397 1959 397 
Q 2419 397 2687 759 
Q 2956 1122 2956 1747 
Q 2956 2369 2687 2733 
Q 2419 3097 1959 3097 
z
M 1959 3584 
Q 2709 3584 3137 3096 
Q 3566 2609 3566 1747 
Q 3566 888 3137 398 
Q 2709 -91 1959 -91 
Q 1206 -91 779 398 
Q 353 888 353 1747 
Q 353 2609 779 3096 
Q 1206 3584 1959 3584 
z
" transform="scale(0.015625)"/>
       <path id="DejaVuSans-74" d="M 1172 4494 
L 1172 3500 
L 2356 3500 
L 2356 3053 
L 1172 3053 
L 1172 1153 
Q 1172 725 1289 603 
Q 1406 481 1766 481 
L 2356 481 
L 2356 0 
L 1766 0 
Q 1100 0 847 248 
Q 594 497 594 1153 
L 594 3053 
L 172 3053 
L 172 3500 
L 594 3500 
L 594 4494 
L 1172 4494 
z
" transform="scale(0.015625)"/>
      </defs>
      <use xlink:href="#DejaVuSans-43"/>
      <use xlink:href="#DejaVuSans-6f" transform="translate(69.824219 0)"/>
      <use xlink:href="#DejaVuSans-73" transform="translate(131.005859 0)"/>
      <use xlink:href="#DejaVuSans-74" transform="translate(183.105469 0)"/>
     </g>
    </g>
   </g>
   <g id="line2d_29">
    <path d="M 88.136475 142.279271 
L 88.430943 72.796842 
L 90.538208 76.652922 
L 91.324557 91.823924 
L 91.98455 91.275142 
L 92.919555 89.125491 
L 93.521748 97.339642 
L 94.41102 98.408335 
L 95.191479 99.789246 
L 96.225786 106.794066 
L 96.895701 119.224971 
L 97.837217 120.733694 
L 98.460127 123.434286 
L 99.308142 132.473079 
L 100.167236 126.259522 
L 100.999621 135.620775 
L 101.562152 140.298873 
L 102.520024 142.797918 
L 103.16143 149.421773 
L 103.962253 155.595617 
L 104.811173 142.813715 
L 105.702221 148.396084 
L 106.814619 163.859493 
L 108.220495 162.132858 
L 109.050866 154.834873 
L 110.205431 169.127599 
L 110.824238 173.990944 
L 111.673784 165.843935 
L 112.322719 168.01281 
L 113.121877 167.440673 
L 113.89748 179.712846 
L 114.987868 175.366195 
L 115.622473 190.149271 
L 116.573219 187.498119 
L 118.034707 191.145232 
L 118.960421 186.816635 
L 119.788346 190.479466 
L 120.844679 191.666371 
L 122.028521 192.435517 
L 122.671391 191.362939 
L 123.557015 199.202231 
L 124.151197 199.797769 
L 125.14037 210.172119 
L 125.97244 202.947262 
L 127.034055 206.137464 
L 127.679411 206.604809 
L 128.690436 208.822496 
L 129.579764 211.42084 
L 130.553122 215.673608 
L 131.235708 216.174516 
L 132.357879 223.907653 
L 132.983502 218.549113 
L 133.911318 217.13517 
L 134.645004 219.469039 
L 135.700429 219.497625 
L 136.349873 224.707626 
L 137.290604 222.839598 
L 138.081646 222.970214 
L 139.117094 234.628492 
L 139.773229 228.070329 
L 140.655164 225.866387 
L 141.223087 231.901022 
L 142.096577 230.82675 
L 142.755852 233.421236 
L 143.726959 248.172657 
L 144.546982 249.27919 
L 145.61188 243.955535 
L 146.240041 246.20783 
L 147.201041 247.244922 
L 148.114911 252.616503 
L 149.174345 248.983612 
L 149.755233 248.78286 
L 150.778167 252.226532 
L 151.327203 253.396521 
L 154.189724 252.355515 
L 155.419925 258.924701 
L 156.476676 259.086776 
L 157.084077 253.071176 
L 157.948311 254.938825 
L 158.741899 267.556137 
L 159.918977 263.640629 
L 160.486012 264.527444 
L 161.304715 265.265227 
L 161.900664 264.461403 
L 162.970906 266.088119 
L 163.571588 266.537408 
L 164.56377 266.010833 
L 165.259212 269.841596 
L 166.236616 266.797143 
L 166.850134 263.94755 
L 167.779273 270.441818 
L 168.369867 268.097301 
L 169.394352 267.956986 
L 170.018444 265.770218 
L 171.112679 266.276719 
L 171.737198 269.029176 
L 172.735703 264.111616 
L 173.600105 264.098942 
L 175.497803 263.922211 
L 176.160923 261.029615 
L 177.193784 259.340161 
L 178.041186 256.29323 
L 179.192561 250.381028 
L 179.818037 255.215992 
L 180.701736 249.145764 
L 181.413927 248.710583 
L 182.933388 245.869688 
L 183.838976 238.010417 
L 185.306725 237.355068 
L 186.306487 241.309837 
L 186.903481 235.292377 
L 187.892551 235.20733 
L 188.544206 234.357684 
L 189.465062 230.949706 
L 190.345097 232.138646 
L 191.166349 224.591427 
L 192.976547 230.302978 
L 193.852997 221.544245 
L 194.43115 221.894494 
L 195.663986 216.005695 
L 196.293104 220.465319 
L 196.996581 212.08061 
L 197.837469 211.354373 
L 198.618404 213.514036 
L 199.234344 212.011624 
L 200.019871 202.59773 
L 201.135426 208.08672 
L 201.746567 198.661216 
L 202.363644 200.61985 
L 202.998173 200.299814 
L 203.62243 202.730548 
L 204.286456 201.351442 
L 204.850566 202.515554 
L 205.644431 198.122919 
L 206.290685 201.27427 
L 207.060314 189.948971 
L 207.670843 201.514258 
L 209.472392 206.420819 
L 210.103239 206.833848 
L 211.015075 200.046374 
L 211.547763 201.603511 
L 212.343417 199.964454 
L 212.959885 207.343628 
L 213.984878 192.935249 
L 214.719554 206.428631 
L 216.729844 195.496549 
L 218.001376 199.487038 
L 219.267216 201.848779 
L 219.886923 199.885433 
L 220.61872 202.16227 
L 221.434055 202.717327 
L 222.21115 196.523559 
L 223.002096 205.372243 
L 223.839955 197.134046 
L 224.732882 205.199664 
L 225.75798 197.324618 
L 226.576054 201.963444 
L 227.64187 202.552189 
L 230.183009 206.810897 
L 230.89956 209.55919 
L 231.727881 207.09722 
L 233.684171 203.649943 
L 234.278593 204.372943 
L 235.040899 206.289638 
L 235.686608 204.721162 
L 236.500644 208.973452 
L 237.146903 199.195775 
L 237.996889 197.335535 
L 238.597154 202.299551 
L 239.68946 197.752904 
L 240.487001 207.687536 
L 241.984164 203.67946 
L 243.512166 209.530866 
L 245.054585 208.361375 
L 246.164832 211.233351 
L 246.916366 212.586747 
L 248.055871 213.550309 
L 248.79126 215.831958 
L 249.829915 216.218645 
L 250.396438 217.732863 
L 251.317995 217.797983 
L 251.958196 219.305007 
L 252.902591 219.95514 
L 253.469409 219.990738 
L 254.419486 220.870394 
L 254.999284 221.791652 
L 255.813521 222.635705 
L 256.543594 223.147156 
L 257.343986 223.4128 
L 258.316076 225.043532 
L 259.191647 225.14954 
L 259.713893 225.390407 
L 260.578023 226.438945 
L 261.183604 226.298957 
L 262.09909 225.500903 
L 262.690668 227.711318 
L 263.582816 226.053406 
L 264.305946 230.05269 
L 265.210505 225.583174 
L 265.786187 225.886307 
L 266.884491 229.149357 
L 267.503822 225.399565 
L 268.478929 223.395273 
L 269.453085 222.905273 
L 270.304447 219.942043 
L 270.896654 219.297151 
L 271.83123 218.897971 
L 273.495808 217.076861 
L 275.621574 217.477781 
L 276.157498 212.995224 
L 277.115597 211.980215 
L 278.550088 212.596202 
L 280.16839 211.391408 
L 280.722548 208.552683 
L 281.762632 209.544926 
L 282.480491 210.686522 
L 283.378533 204.718599 
L 284.687643 204.36311 
L 286.056022 204.141941 
L 286.656831 205.821476 
L 287.627099 201.681471 
L 288.222415 202.430758 
L 289.131011 200.324376 
L 289.683745 202.127779 
L 290.580659 201.084684 
L 291.204401 198.603107 
L 292.223375 192.900673 
L 292.917215 196.945923 
L 293.837307 197.120061 
L 294.422531 197.984559 
L 295.436889 191.48277 
L 295.983183 193.277744 
L 297.090224 191.700407 
L 297.680999 189.959504 
L 298.53397 186.795087 
L 299.112831 186.467297 
L 300.119249 186.31177 
L 300.716405 187.696895 
L 302.23034 187.384843 
L 303.203523 186.642295 
L 304.076452 186.373171 
L 304.986795 185.32699 
L 305.600222 184.944723 
L 306.430995 185.50022 
L 307.075736 185.35262 
L 307.914469 183.557134 
L 308.537758 183.744352 
L 309.549231 180.101331 
L 310.174118 183.279354 
L 311.023178 181.879849 
L 311.641217 184.472927 
L 312.467938 182.279681 
L 314.090078 179.900775 
L 315.955604 180.723515 
L 316.623063 179.094755 
L 318.033006 173.030239 
L 318.887805 172.508383 
L 319.465624 171.884138 
L 320.335543 170.298455 
L 321.010128 165.906893 
L 321.888536 169.319798 
L 322.604903 168.834672 
L 323.405345 169.925513 
L 324.069686 167.554918 
L 324.993378 170.002068 
L 325.638796 169.918266 
L 326.447717 165.807608 
L 327.24235 167.30792 
L 328.120525 164.755929 
L 328.707062 167.115044 
L 329.742918 166.771232 
L 330.317701 167.922272 
L 331.070853 165.287488 
L 332.04292 164.627833 
L 332.928158 167.112696 
L 333.544744 163.59844 
L 334.258984 160.93044 
L 334.823435 165.164027 
L 335.699103 161.58477 
L 337.265403 162.803231 
L 339.179612 162.966214 
L 339.922846 161.20751 
L 341.04868 159.287115 
L 342.564755 162.341972 
L 343.862256 160.799136 
L 345.342603 160.459301 
L 346.042579 161.160327 
L 347.08991 160.657179 
L 347.723844 162.628639 
L 348.573504 164.634355 
L 349.474257 164.095206 
L 350.699812 165.748258 
L 351.461135 165.533423 
L 353.179452 166.278297 
L 353.803773 166.355596 
L 354.606125 169.63381 
L 355.181999 171.331833 
L 356.650487 173.332677 
L 358.280475 180.65156 
L 359.035643 184.627892 
L 359.690858 185.320689 
L 360.604045 186.797145 
L 362.375344 193.051724 
L 362.953958 195.76179 
L 363.78266 195.346457 
L 364.351279 202.129012 
L 365.064644 200.021949 
L 365.617637 197.837812 
L 366.215226 192.441438 
L 367.015888 193.358758 
L 367.541111 188.888731 
L 368.181071 195.73269 
L 368.958325 198.979025 
L 369.541223 199.982497 
L 370.37263 196.171479 
L 371.722715 200.152668 
L 372.45082 199.747664 
L 373.173107 195.774939 
L 375.695643 198.778009 
L 377.029533 188.893029 
L 377.672584 197.235604 
L 378.280509 188.011373 
L 379.733715 187.84704 
L 380.282969 186.381821 
L 381.317978 200.26287 
L 382.940539 193.255084 
L 383.52291 191.744263 
L 384.115907 200.153401 
L 384.650282 210.490022 
L 385.363271 202.745043 
L 386.079521 200.449124 
L 386.618979 199.387222 
L 387.170614 201.244639 
L 387.723192 197.744007 
L 388.272239 209.579234 
L 389.742855 203.712584 
L 390.36264 205.524343 
L 390.944691 206.171986 
L 392.246702 209.902015 
L 393.507585 207.508298 
L 394.624431 200.32987 
L 395.509058 207.41488 
L 396.153283 210.557666 
L 396.748605 208.352511 
L 397.47218 190.921176 
L 398.000495 205.587409 
L 398.79203 189.960062 
L 399.312468 199.89873 
L 399.983993 193.364307 
L 401.276666 190.080047 
L 402.889702 206.314051 
L 403.431422 188.32931 
L 404.181201 197.301058 
L 404.846113 189.502341 
L 405.641423 190.6462 
L 406.232893 192.049923 
L 407.040893 189.549215 
L 407.572786 191.91282 
L 408.243101 189.481227 
L 409.195845 196.171315 
L 409.764099 181.227225 
L 410.477526 188.459853 
L 411.197399 181.114662 
L 411.847697 184.781709 
L 412.556655 180.800785 
L 413.145127 176.610522 
L 413.816669 178.578166 
L 414.6369 177.74735 
L 415.254923 179.003098 
L 415.827893 177.067565 
L 416.472165 180.148728 
L 417.087772 180.415009 
L 417.893174 181.127529 
L 418.409578 184.009184 
L 419.032345 183.254646 
L 420.129255 179.135752 
L 421.192392 182.290456 
L 423.398157 177.833313 
L 423.959641 181.826313 
L 424.547222 180.914343 
L 425.109211 181.607784 
L 425.734396 186.619735 
L 426.519968 188.189244 
L 427.751733 186.330531 
L 429.164987 187.93559 
L 430.056724 189.810475 
L 431.455425 186.333956 
L 432.127884 191.48833 
L 432.874308 195.945422 
L 433.609513 198.225585 
L 434.204406 206.064454 
L 434.792217 208.806482 
L 435.296383 212.986097 
L 436.060482 212.665916 
L 436.616757 216.248802 
L 437.324974 218.166755 
L 437.861947 205.697354 
L 438.456127 213.39504 
L 439.196039 214.535281 
L 439.753299 209.740964 
L 440.331852 212.039642 
L 441.107662 217.294267 
L 441.918545 201.504141 
L 443.671051 200.718043 
L 444.934517 213.321442 
L 446.165053 201.1741 
L 446.869224 203.782914 
L 447.395241 205.255148 
L 447.9926 212.545432 
L 448.593384 207.47572 
L 449.232176 206.639325 
L 449.855589 200.066826 
L 450.477352 210.954476 
L 451.052997 217.168105 
L 451.74973 221.773768 
L 452.389741 214.520739 
L 453.186345 224.412403 
L 453.73492 219.519919 
L 454.609913 221.426827 
L 455.961245 222.100869 
L 456.927596 222.184066 
L 458.210614 220.642434 
L 459.228572 221.398031 
L 460.69697 210.318357 
L 461.516011 220.44859 
L 463.011865 212.692726 
L 463.631997 216.168612 
L 464.254988 215.589373 
L 464.83702 210.47978 
L 465.533818 212.068074 
L 466.169285 203.473043 
L 466.764597 202.59498 
L 467.357116 200.873157 
L 468.664119 210.400886 
L 469.361461 214.563966 
L 470.058951 214.480653 
L 470.728784 206.44693 
L 471.432013 205.998093 
L 472.014098 205.35748 
L 472.576658 202.970659 
L 473.193237 206.342175 
L 473.939879 203.544761 
L 474.530694 204.042465 
L 475.663673 196.653042 
L 476.180991 194.91227 
L 476.782183 195.161102 
L 477.370478 198.141822 
L 477.98742 193.637622 
L 478.907869 190.982526 
L 479.489359 186.467523 
L 480.138663 186.80728 
L 480.896371 181.079479 
L 481.438526 175.089412 
L 482.067371 178.498171 
L 482.763444 176.672546 
L 483.317202 174.418788 
L 483.865309 168.06109 
L 484.413909 171.964723 
L 485.024782 165.327544 
L 486.222303 160.305876 
L 486.838879 158.744088 
L 487.513993 159.352163 
L 488.118696 154.429267 
L 488.850779 151.650252 
L 489.480103 152.976157 
L 490.110092 181.996028 
L 490.902523 176.279584 
L 491.528843 178.191016 
L 492.308014 178.422108 
L 492.934006 177.379735 
L 493.789296 176.845165 
L 496.413315 172.911644 
L 497.747937 169.778389 
L 499.32245 167.118537 
L 500.960826 167.578355 
L 501.723863 162.320305 
L 502.534343 160.922247 
L 503.620848 124.285747 
L 504.180024 120.955733 
L 504.98659 119.825567 
L 505.687525 40.355455 
L 508.025341 44.193264 
L 509.149762 47.387701 
L 509.738813 45.497155 
L 510.337126 48.194713 
L 510.918681 47.061305 
L 511.701477 49.551868 
L 512.278452 49.590162 
L 513.00924 48.479114 
L 513.623392 39.634616 
L 514.818695 38.58953 
L 516.205624 39.22055 
L 516.842874 41.497215 
L 517.585151 41.845073 
L 518.116434 39.726472 
L 518.781837 40.812601 
L 519.482049 39.970952 
L 520.179833 44.617724 
L 521.017489 39.861369 
L 521.559796 41.559578 
L 522.287401 39.938402 
L 522.878962 42.592278 
L 523.514757 39.415289 
L 524.215726 39.03165 
L 524.825355 38.478182 
L 525.436146 40.747326 
L 526.227753 40.690019 
L 526.90007 39.931682 
L 527.68029 43.851915 
L 528.291242 40.438057 
L 528.91331 42.305924 
L 530.096968 41.928786 
L 530.715367 43.402179 
L 531.51124 43.281313 
L 532.125387 40.118234 
L 532.774151 43.512364 
L 533.448613 40.654154 
L 534.673425 44.011222 
L 535.871897 40.659693 
L 536.555378 43.41192 
L 537.317402 44.203818 
L 538.601386 42.609538 
L 539.358044 43.72307 
L 540.065973 42.598068 
L 540.065973 42.598068 
" clip-path="url(#p171a3db544)" style="fill: none; stroke: #1f77b4; stroke-width: 2; stroke-linecap: square"/>
   </g>
   <g id="patch_3">
    <path d="M 65.54 282.04 
L 65.54 26.88 
" style="fill: none; stroke: #000000; stroke-width: 0.8; stroke-linejoin: miter; stroke-linecap: square"/>
   </g>
   <g id="patch_4">
    <path d="M 562.662448 282.04 
L 562.662448 26.88 
" style="fill: none; stroke: #000000; stroke-width: 0.8; stroke-linejoin: miter; stroke-linecap: square"/>
   </g>
   <g id="patch_5">
    <path d="M 65.54 282.04 
L 562.662448 282.04 
" style="fill: none; stroke: #000000; stroke-width: 0.8; stroke-linejoin: miter; stroke-linecap: square"/>
   </g>
   <g id="patch_6">
    <path d="M 65.54 26.88 
L 562.662448 26.88 
" style="fill: none; stroke: #000000; stroke-width: 0.8; stroke-linejoin: miter; stroke-linecap: square"/>
   </g>
   <g id="text_17">
    <!-- MPPI Cost -->
    <g transform="translate(284.673099 20.88) scale(0.12 -0.12)">
     <defs>
      <path id="DejaVuSans-4d" d="M 628 4666 
L 1569 4666 
L 2759 1491 
L 3956 4666 
L 4897 4666 
L 4897 0 
L 4281 0 
L 4281 4097 
L 3078 897 
L 2444 897 
L 1241 4097 
L 1241 0 
L 628 0 
L 628 4666 
z
" transform="scale(0.015625)"/>
      <path id="DejaVuSans-50" d="M 1259 4147 
L 1259 2394 
L 2053 2394 
Q 2494 2394 2734 2622 
Q 2975 2850 2975 3272 
Q 2975 3691 2734 3919 
Q 2494 4147 2053 4147 
L 1259 4147 
z
M 628 4666 
L 2053 4666 
Q 2838 4666 3239 4311 
Q 3641 3956 3641 3272 
Q 3641 2581 3239 2228 
Q 2838 1875 2053 1875 
L 1259 1875 
L 1259 0 
L 628 0 
L 628 4666 
z
" transform="scale(0.015625)"/>
      <path id="DejaVuSans-49" d="M 628 4666 
L 1259 4666 
L 1259 0 
L 628 0 
L 628 4666 
z
" transform="scale(0.015625)"/>
     </defs>
     <use xlink:href="#DejaVuSans-4d"/>
     <use xlink:href="#DejaVuSans-50" transform="translate(86.279297 0)"/>
     <use xlink:href="#DejaVuSans-50" transform="translate(146.582031 0)"/>
     <use xlink:href="#DejaVuSans-49" transform="translate(206.884766 0)"/>
     <use xlink:href="#DejaVuSans-20" transform="translate(236.376953 0)"/>
     <use xlink:href="#DejaVuSans-43" transform="translate(268.164062 0)"/>
     <use xlink:href="#DejaVuSans-6f" transform="translate(337.988281 0)"/>
     <use xlink:href="#DejaVuSans-73" transform="translate(399.169922 0)"/>
     <use xlink:href="#DejaVuSans-74" transform="translate(451.269531 0)"/>
    </g>
   </g>
  </g>
 </g>
 <defs>
  <clipPath id="p171a3db544">
   <rect x="65.54" y="26.88" width="497.122448" height="255.16"/>
  </clipPath>
 </defs>
</svg>
