<?xml version="1.0" encoding="utf-8" standalone="no"?>
<!DOCTYPE svg PUBLIC "-//W3C//DTD SVG 1.1//EN"
  "http://www.w3.org/Graphics/SVG/1.1/DTD/svg11.dtd">
<svg xmlns:xlink="http://www.w3.org/1999/xlink" width="576pt" height="324pt" viewBox="0 0 576 324" xmlns="http://www.w3.org/2000/svg" version="1.1">
 <metadata>
  <rdf:RDF xmlns:dc="http://purl.org/dc/elements/1.1/" xmlns:cc="http://creativecommons.org/ns#" xmlns:rdf="http://www.w3.org/1999/02/22-rdf-syntax-ns#">
   <cc:Work>
    <dc:type rdf:resource="http://purl.org/dc/dcmitype/StillImage"/>
    <dc:date>2026-05-12T11:23:42.029409</dc:date>
    <dc:format>image/svg+xml</dc:format>
    <dc:creator>
     <cc:Agent>
      <dc:title>Matplotlib v3.10.9, https://matplotlib.org/</dc:title>
     </cc:Agent>
    </dc:creator>
   </cc:Work>
  </rdf:RDF>
 </metadata>
 <defs>
  <style type="text/css">*{stroke-linejoin: round; stroke-linecap: butt}</style>
 </defs>
 <g id="figure_1">
  <g id="patch_1">
   <path d="M 0 324 
L 576 324 
L 576 0 
L 0 0 
z
" style="fill: #ffffff"/>
  </g>
  <g id="axes_1">
   <g id="patch_2">
    <path d="M 44.57 282.04 
L 562.662448 282.04 
L 562.662448 26.88 
L 44.57 26.88 
z
" style="fill: #ffffff"/>
   </g>
   <g id="matplotlib.axis_1">
    <g id="xtick_1">
     <g id="line2d_1">
      <path d="M 64.782322 282.04 
L 64.782322 26.88 
" clip-path="url(#pafffd396d5)" style="fill: none; stroke: #b0b0b0; stroke-opacity: 0.3; stroke-width: 0.8; stroke-linecap: square"/>
     </g>
     <g id="line2d_2">
      <defs>
       <path id="m461a01a734" d="M 0 0 
L 0 3.5 
" style="stroke: #000000; stroke-width: 0.8"/>
      </defs>
      <g>
       <use xlink:href="#m461a01a734" x="64.782322" y="282.04" style="stroke: #000000; stroke-width: 0.8"/>
      </g>
     </g>
     <g id="text_1">
      <!-- 0 -->
      <g transform="translate(61.601072 296.638438) scale(0.1 -0.1)">
       <defs>
        <path id="DejaVuSans-30" d="M 2034 4250 
Q 1547 4250 1301 3770 
Q 1056 3291 1056 2328 
Q 1056 1369 1301 889 
Q 1547 409 2034 409 
Q 2525 409 2770 889 
Q 3016 1369 3016 2328 
Q 3016 3291 2770 3770 
Q 2525 4250 2034 4250 
z
M 2034 4750 
Q 2819 4750 3233 4129 
Q 3647 3509 3647 2328 
Q 3647 1150 3233 529 
Q 2819 -91 2034 -91 
Q 1250 -91 836 529 
Q 422 1150 422 2328 
Q 422 3509 836 4129 
Q 1250 4750 2034 4750 
z
" transform="scale(0.015625)"/>
       </defs>
       <use xlink:href="#DejaVuSans-30"/>
      </g>
     </g>
    </g>
    <g id="xtick_2">
     <g id="line2d_3">
      <path d="M 135.28424 282.04 
L 135.28424 26.88 
" clip-path="url(#pafffd396d5)" style="fill: none; stroke: #b0b0b0; stroke-opacity: 0.3; stroke-width: 0.8; stroke-linecap: square"/>
     </g>
     <g id="line2d_4">
      <g>
       <use xlink:href="#m461a01a734" x="135.28424" y="282.04" style="stroke: #000000; stroke-width: 0.8"/>
      </g>
     </g>
     <g id="text_2">
      <!-- 10 -->
      <g transform="translate(128.92174 296.638438) scale(0.1 -0.1)">
       <defs>
        <path id="DejaVuSans-31" d="M 794 531 
L 1825 531 
L 1825 4091 
L 703 3866 
L 703 4441 
L 1819 4666 
L 2450 4666 
L 2450 531 
L 3481 531 
L 3481 0 
L 794 0 
L 794 531 
z
" transform="scale(0.015625)"/>
       </defs>
       <use xlink:href="#DejaVuSans-31"/>
       <use xlink:href="#DejaVuSans-30" transform="translate(63.623047 0)"/>
      </g>
     </g>
    </g>
    <g id="xtick_3">
     <g id="line2d_5">
      <path d="M 205.786157 282.04 
L 205.786157 26.88 
" clip-path="url(#pafffd396d5)" style="fill: none; stroke: #b0b0b0; stroke-opacity: 0.3; stroke-width: 0.8; stroke-linecap: square"/>
     </g>
     <g id="line2d_6">
      <g>
       <use xlink:href="#m461a01a734" x="205.786157" y="282.04" style="stroke: #000000; stroke-width: 0.8"/>
      </g>
     </g>
     <g id="text_3">
      <!-- 20 -->
      <g transform="translate(199.423657 296.638438) scale(0.1 -0.1)">
       <defs>
        <path id="DejaVuSans-32" d="M 1228 531 
L 3431 531 
L 3431 0 
L 469 0 
L 469 531 
Q 828 903 1448 1529 
Q 2069 2156 2228 2338 
Q 2531 2678 2651 2914 
Q 2772 3150 2772 3378 
Q 2772 3750 2511 3984 
Q 2250 4219 1831 4219 
Q 1534 4219 1204 4116 
Q 875 4013 500 3803 
L 500 4441 
Q 881 4594 1212 4672 
Q 1544 4750 1819 4750 
Q 2544 4750 2975 4387 
Q 3406 4025 3406 3419 
Q 3406 3131 3298 2873 
Q 3191 2616 2906 2266 
Q 2828 2175 2409 1742 
Q 1991 1309 1228 531 
z
" transform="scale(0.015625)"/>
       </defs>
       <use xlink:href="#DejaVuSans-32"/>
       <use xlink:href="#DejaVuSans-30" transform="translate(63.623047 0)"/>
      </g>
     </g>
    </g>
    <g id="xtick_4">
     <g id="line2d_7">
      <path d="M 276.288075 282.04 
L 276.288075 26.88 
" clip-path="url(#pafffd396d5)" style="fill: none; stroke: #b0b0b0; stroke-opacity: 0.3; stroke-width: 0.8; stroke-linecap: square"/>
     </g>
     <g id="line2d_8">
      <g>
       <use xlink:href="#m461a01a734" x="276.288075" y="282.04" style="stroke: #000000; stroke-width: 0.8"/>
      </g>
     </g>
     <g id="text_4">
      <!-- 30 -->
      <g transform="translate(269.925575 296.638438) scale(0.1 -0.1)">
       <defs>
        <path id="DejaVuSans-33" d="M 2597 2516 
Q 3050 2419 3304 2112 
Q 3559 1806 3559 1356 
Q 3559 666 3084 287 
Q 2609 -91 1734 -91 
Q 1441 -91 1130 -33 
Q 819 25 488 141 
L 488 750 
Q 750 597 1062 519 
Q 1375 441 1716 441 
Q 2309 441 2620 675 
Q 2931 909 2931 1356 
Q 2931 1769 2642 2001 
Q 2353 2234 1838 2234 
L 1294 2234 
L 1294 2753 
L 1863 2753 
Q 2328 2753 2575 2939 
Q 2822 3125 2822 3475 
Q 2822 3834 2567 4026 
Q 2313 4219 1838 4219 
Q 1578 4219 1281 4162 
Q 984 4106 628 3988 
L 628 4550 
Q 988 4650 1302 4700 
Q 1616 4750 1894 4750 
Q 2613 4750 3031 4423 
Q 3450 4097 3450 3541 
Q 3450 3153 3228 2886 
Q 3006 2619 2597 2516 
z
" transform="scale(0.015625)"/>
       </defs>
       <use xlink:href="#DejaVuSans-33"/>
       <use xlink:href="#DejaVuSans-30" transform="translate(63.623047 0)"/>
      </g>
     </g>
    </g>
    <g id="xtick_5">
     <g id="line2d_9">
      <path d="M 346.789993 282.04 
L 346.789993 26.88 
" clip-path="url(#pafffd396d5)" style="fill: none; stroke: #b0b0b0; stroke-opacity: 0.3; stroke-width: 0.8; stroke-linecap: square"/>
     </g>
     <g id="line2d_10">
      <g>
       <use xlink:href="#m461a01a734" x="346.789993" y="282.04" style="stroke: #000000; stroke-width: 0.8"/>
      </g>
     </g>
     <g id="text_5">
      <!-- 40 -->
      <g transform="translate(340.427493 296.638438) scale(0.1 -0.1)">
       <defs>
        <path id="DejaVuSans-34" d="M 2419 4116 
L 825 1625 
L 2419 1625 
L 2419 4116 
z
M 2253 4666 
L 3047 4666 
L 3047 1625 
L 3713 1625 
L 3713 1100 
L 3047 1100 
L 3047 0 
L 2419 0 
L 2419 1100 
L 313 1100 
L 313 1709 
L 2253 4666 
z
" transform="scale(0.015625)"/>
       </defs>
       <use xlink:href="#DejaVuSans-34"/>
       <use xlink:href="#DejaVuSans-30" transform="translate(63.623047 0)"/>
      </g>
     </g>
    </g>
    <g id="xtick_6">
     <g id="line2d_11">
      <path d="M 417.29191 282.04 
L 417.29191 26.88 
" clip-path="url(#pafffd396d5)" style="fill: none; stroke: #b0b0b0; stroke-opacity: 0.3; stroke-width: 0.8; stroke-linecap: square"/>
     </g>
     <g id="line2d_12">
      <g>
       <use xlink:href="#m461a01a734" x="417.29191" y="282.04" style="stroke: #000000; stroke-width: 0.8"/>
      </g>
     </g>
     <g id="text_6">
      <!-- 50 -->
      <g transform="translate(410.92941 296.638438) scale(0.1 -0.1)">
       <defs>
        <path id="DejaVuSans-35" d="M 691 4666 
L 3169 4666 
L 3169 4134 
L 1269 4134 
L 1269 2991 
Q 1406 3038 1543 3061 
Q 1681 3084 1819 3084 
Q 2600 3084 3056 2656 
Q 3513 2228 3513 1497 
Q 3513 744 3044 326 
Q 2575 -91 1722 -91 
Q 1428 -91 1123 -41 
Q 819 9 494 109 
L 494 744 
Q 775 591 1075 516 
Q 1375 441 1709 441 
Q 2250 441 2565 725 
Q 2881 1009 2881 1497 
Q 2881 1984 2565 2268 
Q 2250 2553 1709 2553 
Q 1456 2553 1204 2497 
Q 953 2441 691 2322 
L 691 4666 
z
" transform="scale(0.015625)"/>
       </defs>
       <use xlink:href="#DejaVuSans-35"/>
       <use xlink:href="#DejaVuSans-30" transform="translate(63.623047 0)"/>
      </g>
     </g>
    </g>
    <g id="xtick_7">
     <g id="line2d_13">
      <path d="M 487.793828 282.04 
L 487.793828 26.88 
" clip-path="url(#pafffd396d5)" style="fill: none; stroke: #b0b0b0; stroke-opacity: 0.3; stroke-width: 0.8; stroke-linecap: square"/>
     </g>
     <g id="line2d_14">
      <g>
       <use xlink:href="#m461a01a734" x="487.793828" y="282.04" style="stroke: #000000; stroke-width: 0.8"/>
      </g>
     </g>
     <g id="text_7">
      <!-- 60 -->
      <g transform="translate(481.431328 296.638438) scale(0.1 -0.1)">
       <defs>
        <path id="DejaVuSans-36" d="M 2113 2584 
Q 1688 2584 1439 2293 
Q 1191 2003 1191 1497 
Q 1191 994 1439 701 
Q 1688 409 2113 409 
Q 2538 409 2786 701 
Q 3034 994 3034 1497 
Q 3034 2003 2786 2293 
Q 2538 2584 2113 2584 
z
M 3366 4563 
L 3366 3988 
Q 3128 4100 2886 4159 
Q 2644 4219 2406 4219 
Q 1781 4219 1451 3797 
Q 1122 3375 1075 2522 
Q 1259 2794 1537 2939 
Q 1816 3084 2150 3084 
Q 2853 3084 3261 2657 
Q 3669 2231 3669 1497 
Q 3669 778 3244 343 
Q 2819 -91 2113 -91 
Q 1303 -91 875 529 
Q 447 1150 447 2328 
Q 447 3434 972 4092 
Q 1497 4750 2381 4750 
Q 2619 4750 2861 4703 
Q 3103 4656 3366 4563 
z
" transform="scale(0.015625)"/>
       </defs>
       <use xlink:href="#DejaVuSans-36"/>
       <use xlink:href="#DejaVuSans-30" transform="translate(63.623047 0)"/>
      </g>
     </g>
    </g>
    <g id="xtick_8">
     <g id="line2d_15">
      <path d="M 558.295746 282.04 
L 558.295746 26.88 
" clip-path="url(#pafffd396d5)" style="fill: none; stroke: #b0b0b0; stroke-opacity: 0.3; stroke-width: 0.8; stroke-linecap: square"/>
     </g>
     <g id="line2d_16">
      <g>
       <use xlink:href="#m461a01a734" x="558.295746" y="282.04" style="stroke: #000000; stroke-width: 0.8"/>
      </g>
     </g>
     <g id="text_8">
      <!-- 70 -->
      <g transform="translate(551.933246 296.638438) scale(0.1 -0.1)">
       <defs>
        <path id="DejaVuSans-37" d="M 525 4666 
L 3525 4666 
L 3525 4397 
L 1831 0 
L 1172 0 
L 2766 4134 
L 525 4134 
L 525 4666 
z
" transform="scale(0.015625)"/>
       </defs>
       <use xlink:href="#DejaVuSans-37"/>
       <use xlink:href="#DejaVuSans-30" transform="translate(63.623047 0)"/>
      </g>
     </g>
    </g>
    <g id="text_9">
     <!-- Time [s] -->
     <g transform="translate(283.287318 310.316563) scale(0.1 -0.1)">
      <defs>
       <path id="DejaVuSans-54" d="M -19 4666 
L 3928 4666 
L 3928 4134 
L 2272 4134 
L 2272 0 
L 1638 0 
L 1638 4134 
L -19 4134 
L -19 4666 
z
" transform="scale(0.015625)"/>
       <path id="DejaVuSans-69" d="M 603 3500 
L 1178 3500 
L 1178 0 
L 603 0 
L 603 3500 
z
M 603 4863 
L 1178 4863 
L 1178 4134 
L 603 4134 
L 603 4863 
z
" transform="scale(0.015625)"/>
       <path id="DejaVuSans-6d" d="M 3328 2828 
Q 3544 3216 3844 3400 
Q 4144 3584 4550 3584 
Q 5097 3584 5394 3201 
Q 5691 2819 5691 2113 
L 5691 0 
L 5113 0 
L 5113 2094 
Q 5113 2597 4934 2840 
Q 4756 3084 4391 3084 
Q 3944 3084 3684 2787 
Q 3425 2491 3425 1978 
L 3425 0 
L 2847 0 
L 2847 2094 
Q 2847 2600 2669 2842 
Q 2491 3084 2119 3084 
Q 1678 3084 1418 2786 
Q 1159 2488 1159 1978 
L 1159 0 
L 581 0 
L 581 3500 
L 1159 3500 
L 1159 2956 
Q 1356 3278 1631 3431 
Q 1906 3584 2284 3584 
Q 2666 3584 2933 3390 
Q 3200 3197 3328 2828 
z
" transform="scale(0.015625)"/>
       <path id="DejaVuSans-65" d="M 3597 1894 
L 3597 1613 
L 953 1613 
Q 991 1019 1311 708 
Q 1631 397 2203 397 
Q 2534 397 2845 478 
Q 3156 559 3463 722 
L 3463 178 
Q 3153 47 2828 -22 
Q 2503 -91 2169 -91 
Q 1331 -91 842 396 
Q 353 884 353 1716 
Q 353 2575 817 3079 
Q 1281 3584 2069 3584 
Q 2775 3584 3186 3129 
Q 3597 2675 3597 1894 
z
M 3022 2063 
Q 3016 2534 2758 2815 
Q 2500 3097 2075 3097 
Q 1594 3097 1305 2825 
Q 1016 2553 972 2059 
L 3022 2063 
z
" transform="scale(0.015625)"/>
       <path id="DejaVuSans-20" transform="scale(0.015625)"/>
       <path id="DejaVuSans-5b" d="M 550 4863 
L 1875 4863 
L 1875 4416 
L 1125 4416 
L 1125 -397 
L 1875 -397 
L 1875 -844 
L 550 -844 
L 550 4863 
z
" transform="scale(0.015625)"/>
       <path id="DejaVuSans-73" d="M 2834 3397 
L 2834 2853 
Q 2591 2978 2328 3040 
Q 2066 3103 1784 3103 
Q 1356 3103 1142 2972 
Q 928 2841 928 2578 
Q 928 2378 1081 2264 
Q 1234 2150 1697 2047 
L 1894 2003 
Q 2506 1872 2764 1633 
Q 3022 1394 3022 966 
Q 3022 478 2636 193 
Q 2250 -91 1575 -91 
Q 1294 -91 989 -36 
Q 684 19 347 128 
L 347 722 
Q 666 556 975 473 
Q 1284 391 1588 391 
Q 1994 391 2212 530 
Q 2431 669 2431 922 
Q 2431 1156 2273 1281 
Q 2116 1406 1581 1522 
L 1381 1569 
Q 847 1681 609 1914 
Q 372 2147 372 2553 
Q 372 3047 722 3315 
Q 1072 3584 1716 3584 
Q 2034 3584 2315 3537 
Q 2597 3491 2834 3397 
z
" transform="scale(0.015625)"/>
       <path id="DejaVuSans-5d" d="M 1947 4863 
L 1947 -844 
L 622 -844 
L 622 -397 
L 1369 -397 
L 1369 4416 
L 622 4416 
L 622 4863 
L 1947 4863 
z
" transform="scale(0.015625)"/>
      </defs>
      <use xlink:href="#DejaVuSans-54"/>
      <use xlink:href="#DejaVuSans-69" transform="translate(57.958984 0)"/>
      <use xlink:href="#DejaVuSans-6d" transform="translate(85.742188 0)"/>
      <use xlink:href="#DejaVuSans-65" transform="translate(183.154297 0)"/>
      <use xlink:href="#DejaVuSans-20" transform="translate(244.677734 0)"/>
      <use xlink:href="#DejaVuSans-5b" transform="translate(276.464844 0)"/>
      <use xlink:href="#DejaVuSans-73" transform="translate(315.478516 0)"/>
      <use xlink:href="#DejaVuSans-5d" transform="translate(367.578125 0)"/>
     </g>
    </g>
   </g>
   <g id="matplotlib.axis_2">
    <g id="ytick_1">
     <g id="line2d_17">
      <path d="M 44.57 270.441818 
L 562.662448 270.441818 
" clip-path="url(#pafffd396d5)" style="fill: none; stroke: #b0b0b0; stroke-opacity: 0.3; stroke-width: 0.8; stroke-linecap: square"/>
     </g>
     <g id="line2d_18">
      <defs>
       <path id="m5baa94c8f8" d="M 0 0 
L -3.5 0 
" style="stroke: #000000; stroke-width: 0.8"/>
      </defs>
      <g>
       <use xlink:href="#m5baa94c8f8" x="44.57" y="270.441818" style="stroke: #000000; stroke-width: 0.8"/>
      </g>
     </g>
     <g id="text_10">
      <!-- 0 -->
      <g transform="translate(31.2075 274.241037) scale(0.1 -0.1)">
       <use xlink:href="#DejaVuSans-30"/>
      </g>
     </g>
    </g>
    <g id="ytick_2">
     <g id="line2d_19">
      <path d="M 44.57 228.759994 
L 562.662448 228.759994 
" clip-path="url(#pafffd396d5)" style="fill: none; stroke: #b0b0b0; stroke-opacity: 0.3; stroke-width: 0.8; stroke-linecap: square"/>
     </g>
     <g id="line2d_20">
      <g>
       <use xlink:href="#m5baa94c8f8" x="44.57" y="228.759994" style="stroke: #000000; stroke-width: 0.8"/>
      </g>
     </g>
     <g id="text_11">
      <!-- 2 -->
      <g transform="translate(31.2075 232.559213) scale(0.1 -0.1)">
       <use xlink:href="#DejaVuSans-32"/>
      </g>
     </g>
    </g>
    <g id="ytick_3">
     <g id="line2d_21">
      <path d="M 44.57 187.078171 
L 562.662448 187.078171 
" clip-path="url(#pafffd396d5)" style="fill: none; stroke: #b0b0b0; stroke-opacity: 0.3; stroke-width: 0.8; stroke-linecap: square"/>
     </g>
     <g id="line2d_22">
      <g>
       <use xlink:href="#m5baa94c8f8" x="44.57" y="187.078171" style="stroke: #000000; stroke-width: 0.8"/>
      </g>
     </g>
     <g id="text_12">
      <!-- 4 -->
      <g transform="translate(31.2075 190.877389) scale(0.1 -0.1)">
       <use xlink:href="#DejaVuSans-34"/>
      </g>
     </g>
    </g>
    <g id="ytick_4">
     <g id="line2d_23">
      <path d="M 44.57 145.396347 
L 562.662448 145.396347 
" clip-path="url(#pafffd396d5)" style="fill: none; stroke: #b0b0b0; stroke-opacity: 0.3; stroke-width: 0.8; stroke-linecap: square"/>
     </g>
     <g id="line2d_24">
      <g>
       <use xlink:href="#m5baa94c8f8" x="44.57" y="145.396347" style="stroke: #000000; stroke-width: 0.8"/>
      </g>
     </g>
     <g id="text_13">
      <!-- 6 -->
      <g transform="translate(31.2075 149.195565) scale(0.1 -0.1)">
       <use xlink:href="#DejaVuSans-36"/>
      </g>
     </g>
    </g>
    <g id="ytick_5">
     <g id="line2d_25">
      <path d="M 44.57 103.714523 
L 562.662448 103.714523 
" clip-path="url(#pafffd396d5)" style="fill: none; stroke: #b0b0b0; stroke-opacity: 0.3; stroke-width: 0.8; stroke-linecap: square"/>
     </g>
     <g id="line2d_26">
      <g>
       <use xlink:href="#m5baa94c8f8" x="44.57" y="103.714523" style="stroke: #000000; stroke-width: 0.8"/>
      </g>
     </g>
     <g id="text_14">
      <!-- 8 -->
      <g transform="translate(31.2075 107.513742) scale(0.1 -0.1)">
       <defs>
        <path id="DejaVuSans-38" d="M 2034 2216 
Q 1584 2216 1326 1975 
Q 1069 1734 1069 1313 
Q 1069 891 1326 650 
Q 1584 409 2034 409 
Q 2484 409 2743 651 
Q 3003 894 3003 1313 
Q 3003 1734 2745 1975 
Q 2488 2216 2034 2216 
z
M 1403 2484 
Q 997 2584 770 2862 
Q 544 3141 544 3541 
Q 544 4100 942 4425 
Q 1341 4750 2034 4750 
Q 2731 4750 3128 4425 
Q 3525 4100 3525 3541 
Q 3525 3141 3298 2862 
Q 3072 2584 2669 2484 
Q 3125 2378 3379 2068 
Q 3634 1759 3634 1313 
Q 3634 634 3220 271 
Q 2806 -91 2034 -91 
Q 1263 -91 848 271 
Q 434 634 434 1313 
Q 434 1759 690 2068 
Q 947 2378 1403 2484 
z
M 1172 3481 
Q 1172 3119 1398 2916 
Q 1625 2713 2034 2713 
Q 2441 2713 2670 2916 
Q 2900 3119 2900 3481 
Q 2900 3844 2670 4047 
Q 2441 4250 2034 4250 
Q 1625 4250 1398 4047 
Q 1172 3844 1172 3481 
z
" transform="scale(0.015625)"/>
       </defs>
       <use xlink:href="#DejaVuSans-38"/>
      </g>
     </g>
    </g>
    <g id="ytick_6">
     <g id="line2d_27">
      <path d="M 44.57 62.032699 
L 562.662448 62.032699 
" clip-path="url(#pafffd396d5)" style="fill: none; stroke: #b0b0b0; stroke-opacity: 0.3; stroke-width: 0.8; stroke-linecap: square"/>
     </g>
     <g id="line2d_28">
      <g>
       <use xlink:href="#m5baa94c8f8" x="44.57" y="62.032699" style="stroke: #000000; stroke-width: 0.8"/>
      </g>
     </g>
     <g id="text_15">
      <!-- 10 -->
      <g transform="translate(24.845 65.831918) scale(0.1 -0.1)">
       <use xlink:href="#DejaVuSans-31"/>
       <use xlink:href="#DejaVuSans-30" transform="translate(63.623047 0)"/>
      </g>
     </g>
    </g>
    <g id="text_16">
     <!-- m/s -->
     <g transform="translate(18.765313 163.619375) rotate(-90) scale(0.1 -0.1)">
      <defs>
       <path id="DejaVuSans-2f" d="M 1625 4666 
L 2156 4666 
L 531 -594 
L 0 -594 
L 1625 4666 
z
" transform="scale(0.015625)"/>
      </defs>
      <use xlink:href="#DejaVuSans-6d"/>
      <use xlink:href="#DejaVuSans-2f" transform="translate(97.412109 0)"/>
      <use xlink:href="#DejaVuSans-73" transform="translate(131.103516 0)"/>
     </g>
    </g>
   </g>
   <g id="line2d_29">
    <path d="M 68.119657 270.242546 
L 68.426546 270.267741 
L 77.248371 270.399036 
L 78.229603 260.22357 
L 78.878789 246.227488 
L 79.762576 235.175762 
L 82.111666 210.981225 
L 83.109944 204.13902 
L 83.778406 197.959724 
L 85.49774 186.442233 
L 86.426375 181.519526 
L 87.585696 177.46782 
L 89.050877 173.374332 
L 89.916275 168.63046 
L 91.119543 164.101266 
L 91.764452 159.796031 
L 92.649835 155.147618 
L 93.326143 150.069083 
L 94.967332 139.378877 
L 96.103716 133.74566 
L 96.76509 128.221959 
L 97.755942 123.403212 
L 98.389171 119.262043 
L 100.243842 112.044268 
L 101.106691 108.805273 
L 102.207583 105.84995 
L 103.441363 102.912654 
L 104.111351 99.83495 
L 105.034333 96.804511 
L 105.653579 93.9404 
L 108.658044 86.294072 
L 109.330623 83.501412 
L 112.325556 75.396836 
L 113.036935 72.92817 
L 114.206442 70.982776 
L 114.858455 69.019252 
L 115.82541 67.49828 
L 116.590044 65.245543 
L 117.68999 62.769096 
L 118.36683 60.347562 
L 119.347243 58.072369 
L 120.171654 55.624429 
L 121.250779 53.487277 
L 122.85373 49.444041 
L 123.445609 47.159461 
L 125.04303 42.385364 
L 126.055102 41.05736 
L 126.909715 39.371801 
L 128.019534 38.805547 
L 128.674192 39.057971 
L 129.67573 38.478182 
L 130.628149 40.393663 
L 131.732273 44.012956 
L 132.337665 47.051343 
L 133.403748 49.154421 
L 133.975944 51.602182 
L 138.241308 54.636002 
L 139.342637 55.800496 
L 139.975659 56.882498 
L 140.876349 57.179766 
L 142.930143 59.16749 
L 144.374336 59.311042 
L 144.995424 58.887121 
L 146.110811 58.319003 
L 146.736831 58.19729 
L 148.495644 60.38 
L 149.514278 60.300337 
L 151.122008 57.478569 
L 151.737516 55.493269 
L 152.805216 53.409199 
L 153.455634 51.374884 
L 154.596027 48.661276 
L 155.24689 46.530137 
L 156.287515 45.074323 
L 157.188379 43.004383 
L 159.166128 42.454469 
L 159.85722 42.665273 
L 160.933649 42.459744 
L 161.816797 43.182386 
L 163.668601 43.50232 
L 164.589576 42.844537 
L 165.33181 41.863177 
L 166.314285 41.423993 
L 166.915366 40.548506 
L 167.859154 40.965179 
L 169.388817 42.004022 
L 170.430751 42.353035 
L 171.052928 43.51595 
L 172.08372 44.804546 
L 172.762864 45.211672 
L 173.722564 46.282252 
L 174.639721 47.821866 
L 175.495615 48.30495 
L 176.773157 49.607098 
L 177.382173 51.342536 
L 178.295594 52.114409 
L 178.898135 53.641669 
L 179.560767 55.737127 
L 180.182976 56.88221 
L 180.838631 58.951519 
L 181.571783 61.750493 
L 182.448142 63.620275 
L 183.262019 67.934934 
L 183.903942 73.367118 
L 184.722604 78.085522 
L 185.885216 81.4616 
L 187.165244 88.933174 
L 189.169166 97.032995 
L 191.257939 102.638297 
L 192.060032 103.639548 
L 192.696316 105.15425 
L 194.573859 105.802953 
L 195.231316 106.195138 
L 196.736774 107.892848 
L 197.565991 108.066341 
L 198.208463 108.776499 
L 199.276693 108.572703 
L 200.04236 107.886805 
L 202.13745 107.891566 
L 203.462619 108.013766 
L 204.781855 107.340973 
L 205.427703 107.417354 
L 206.190369 106.500312 
L 207.040098 104.953693 
L 208.674283 100.698316 
L 209.547485 98.160635 
L 210.478078 95.957331 
L 211.546417 94.371022 
L 212.399 92.514992 
L 213.509775 91.954655 
L 216.158107 91.792386 
L 216.904884 90.991582 
L 217.768145 91.277178 
L 220.426453 92.514934 
L 221.220916 93.498925 
L 221.893863 94.660503 
L 222.742237 94.813645 
L 223.415757 94.76475 
L 224.301598 95.635119 
L 224.927184 96.792984 
L 226.065566 97.41988 
L 226.896749 98.762268 
L 229.500218 101.116113 
L 230.049525 104.641812 
L 232.814087 112.80806 
L 233.597323 115.408424 
L 234.784895 118.391701 
L 235.551305 121.06795 
L 236.633774 123.56185 
L 237.224194 124.359041 
L 238.184624 126.010433 
L 238.851831 127.782047 
L 239.836063 128.294631 
L 240.426791 129.684794 
L 241.416945 131.137164 
L 242.021201 131.409139 
L 243.630654 133.644705 
L 244.464809 133.674716 
L 246.390409 134.974619 
L 246.934685 134.427851 
L 247.835266 134.57829 
L 248.466392 134.933203 
L 249.420496 135.604118 
L 250.037029 134.653548 
L 250.96681 135.593942 
L 251.720444 137.064562 
L 252.663159 137.104664 
L 253.263125 138.516861 
L 254.407759 139.100894 
L 255.053215 138.982542 
L 256.069454 138.297317 
L 257.084703 136.934243 
L 258.589166 133.943639 
L 259.563165 132.667757 
L 261.297959 132.873182 
L 264.071926 134.235984 
L 265.070441 135.20908 
L 266.565442 137.338831 
L 268.252009 139.51088 
L 268.829543 141.695644 
L 269.913501 143.315022 
L 270.661641 146.258274 
L 271.597565 149.460507 
L 272.961896 152.578809 
L 274.387998 154.309605 
L 275.01415 157.769846 
L 276.025348 160.130347 
L 276.645775 161.252334 
L 279.103496 163.716284 
L 279.75355 163.815526 
L 280.815506 167.697506 
L 281.538615 171.067992 
L 282.497519 170.610475 
L 284.164575 166.404673 
L 284.733914 163.502759 
L 285.887653 160.880368 
L 286.503348 157.742845 
L 287.392301 154.848298 
L 287.995579 149.875947 
L 289.666796 144.190703 
L 290.560135 141.547453 
L 291.244593 138.268362 
L 293.168579 130.657593 
L 294.117323 128.680721 
L 294.756627 127.759355 
L 295.622443 125.683134 
L 296.294382 122.71978 
L 297.168495 123.83786 
L 297.818076 128.105365 
L 298.872215 133.292007 
L 299.523461 138.710169 
L 300.408338 138.793903 
L 301.052447 139.298009 
L 301.914041 137.028961 
L 303.604608 135.27222 
L 305.548827 132.109503 
L 306.244441 130.674195 
L 307.081864 131.521285 
L 307.713859 130.824275 
L 308.604716 129.260176 
L 310.113524 132.528878 
L 310.816564 135.300261 
L 311.732026 136.530015 
L 313.312819 139.850064 
L 314.96784 138.974481 
L 315.640482 137.846985 
L 316.483526 135.166902 
L 317.311679 133.417176 
L 318.226898 132.386187 
L 318.838177 134.511112 
L 319.917727 134.601758 
L 320.516757 136.208079 
L 321.301679 137.676697 
L 322.31475 137.651163 
L 323.23733 139.62104 
L 323.879925 143.481548 
L 324.624294 145.915584 
L 325.212555 148.755298 
L 326.125161 151.426067 
L 327.757532 151.722213 
L 330.527073 153.388645 
L 331.700398 151.363172 
L 332.415003 150.641724 
L 333.280426 147.830198 
L 334.632659 145.419628 
L 336.175451 143.516822 
L 336.904954 141.880996 
L 337.996464 140.601798 
L 338.657139 138.781257 
L 339.54264 137.736587 
L 340.481389 138.656344 
L 341.758642 137.980891 
L 342.552079 136.645965 
L 344.342879 135.848913 
L 344.993536 134.98868 
L 345.829733 132.691339 
L 346.429899 131.542641 
L 347.348891 130.771633 
L 347.960332 129.758281 
L 348.859844 129.232312 
L 349.659078 128.287427 
L 350.446101 127.184636 
L 351.128955 126.012391 
L 352.080662 127.571362 
L 352.934257 126.517971 
L 353.92668 126.007878 
L 354.529702 125.432419 
L 355.39336 124.289089 
L 355.985965 122.324717 
L 356.729422 121.243975 
L 357.928539 116.88578 
L 358.762975 115.789372 
L 359.310354 117.114584 
L 359.977308 115.924616 
L 360.787349 117.172095 
L 361.394835 116.76774 
L 362.261314 116.80444 
L 363.133494 118.983039 
L 363.668349 118.532204 
L 365.179922 116.347763 
L 367.808866 114.680086 
L 369.199023 111.163751 
L 369.8692 109.167088 
L 370.502769 108.407675 
L 372.017275 109.565031 
L 372.589698 110.398114 
L 373.668366 112.198482 
L 375.359372 112.883909 
L 375.966309 113.711836 
L 376.58432 113.090729 
L 377.141237 114.975059 
L 377.884301 115.660051 
L 378.630765 115.061911 
L 379.192978 114.117938 
L 380.915978 110.357595 
L 382.448628 109.68764 
L 383.094558 108.510241 
L 383.701161 107.650858 
L 384.312586 107.977424 
L 385.058094 107.885822 
L 386.372165 107.230534 
L 387.536122 106.149823 
L 389.129466 104.351211 
L 389.7499 103.183913 
L 390.503998 102.017289 
L 391.054599 100.952664 
L 391.879522 99.808712 
L 392.421914 98.526865 
L 393.121766 97.253306 
L 394.468967 95.795615 
L 396.150046 94.385781 
L 396.714617 92.805399 
L 397.496024 93.544393 
L 399.634262 89.306984 
L 400.476346 88.67081 
L 401.729266 89.983628 
L 402.722199 89.688242 
L 403.314424 88.640954 
L 404.057945 88.056717 
L 404.808185 89.138738 
L 405.485914 88.388012 
L 406.224777 88.006468 
L 406.838073 88.130902 
L 407.537943 88.954207 
L 408.392773 92.37966 
L 409.036865 96.573716 
L 409.634006 99.342606 
L 410.305455 101.549655 
L 410.94703 102.40882 
L 411.786406 102.890471 
L 412.324593 103.545043 
L 415.224794 103.719764 
L 416.336585 103.508065 
L 418.108772 103.550447 
L 418.72114 103.319689 
L 419.306835 102.93589 
L 419.958392 102.797211 
L 423.533695 103.184251 
L 424.463048 103.955778 
L 425.92075 104.432515 
L 426.621575 103.911879 
L 428.165703 101.196882 
L 429.92373 96.720606 
L 430.720061 95.836809 
L 431.299801 95.436943 
L 432.037893 94.622859 
L 432.597517 95.124409 
L 433.216761 96.133351 
L 433.987884 96.462733 
L 435.171609 99.082721 
L 435.980145 99.606408 
L 436.825233 102.129538 
L 439.968427 108.254484 
L 440.708664 111.811353 
L 441.250871 115.502873 
L 441.984745 118.248139 
L 442.532951 121.93193 
L 443.155508 124.675599 
L 443.781636 125.45979 
L 445.097083 128.510072 
L 445.745074 129.09696 
L 446.345001 130.718219 
L 447.071125 131.562795 
L 447.738134 131.350655 
L 448.56834 131.387033 
L 449.140055 131.104828 
L 450.051959 130.122566 
L 451.460293 129.209768 
L 452.467407 128.204204 
L 454.865445 126.279541 
L 456.395784 125.42723 
L 457.249375 124.429576 
L 458.808328 123.477316 
L 459.454619 122.565982 
L 460.103889 122.042746 
L 460.710472 121.99902 
L 461.436663 122.215476 
L 462.098937 120.834749 
L 462.719361 120.979124 
L 463.336873 121.494933 
L 464.69901 120.843291 
L 466.15268 119.325769 
L 466.850768 116.760638 
L 467.583661 116.618475 
L 468.1903 116.670762 
L 468.77659 116.947977 
L 469.419178 115.735895 
L 470.197316 115.789364 
L 471.404717 117.989071 
L 471.993824 118.925978 
L 472.532964 118.635029 
L 473.159516 115.172286 
L 473.772627 113.697402 
L 474.415593 113.541232 
L 475.374869 110.586131 
L 475.980888 110.052865 
L 476.657581 111.880415 
L 477.447252 113.088974 
L 478.012277 114.256129 
L 478.667648 112.731302 
L 479.393083 113.707316 
L 479.9702 116.107446 
L 481.11317 118.100511 
L 481.749811 116.954224 
L 482.372847 116.729966 
L 482.997847 116.906927 
L 483.640431 115.583215 
L 484.344023 115.259098 
L 484.974235 115.569106 
L 485.737199 114.61676 
L 486.39307 114.799046 
L 487.049633 115.739026 
L 487.875491 115.453598 
L 489.34027 120.808742 
L 489.992668 122.794901 
L 490.884036 123.60194 
L 491.44184 125.078091 
L 493.618744 129.407999 
L 495.009664 129.296083 
L 496.650594 132.133983 
L 497.758727 136.532248 
L 498.358081 140.194202 
L 499.153304 210.150647 
L 499.997974 213.407184 
L 501.13031 215.067347 
L 502.553663 218.633121 
L 503.284165 220.92198 
L 505.720596 222.847469 
L 506.25515 223.94294 
L 506.892449 224.735624 
L 507.506348 225.180115 
L 508.735986 225.386616 
L 509.551802 224.800669 
L 510.153116 223.934431 
L 510.91473 240.516289 
L 511.554789 258.22112 
L 512.800513 269.480878 
L 514.245947 269.423036 
L 514.910077 269.186346 
L 515.683666 269.050182 
L 518.387799 269.727911 
L 519.825972 269.88497 
L 521.200784 269.83639 
L 521.863399 270.196907 
L 534.145872 270.342739 
L 534.741797 270.441818 
L 536.248278 270.342427 
L 539.112791 270.346085 
L 539.112791 270.346085 
" clip-path="url(#pafffd396d5)" style="fill: none; stroke: #1f77b4; stroke-width: 2; stroke-linecap: square"/>
   </g>
   <g id="patch_3">
    <path d="M 44.57 282.04 
L 44.57 26.88 
" style="fill: none; stroke: #000000; stroke-width: 0.8; stroke-linejoin: miter; stroke-linecap: square"/>
   </g>
   <g id="patch_4">
    <path d="M 562.662448 282.04 
L 562.662448 26.88 
" style="fill: none; stroke: #000000; stroke-width: 0.8; stroke-linejoin: miter; stroke-linecap: square"/>
   </g>
   <g id="patch_5">
    <path d="M 44.57 282.04 
L 562.662448 282.04 
" style="fill: none; stroke: #000000; stroke-width: 0.8; stroke-linejoin: miter; stroke-linecap: square"/>
   </g>
   <g id="patch_6">
    <path d="M 44.57 26.88 
L 562.662448 26.88 
" style="fill: none; stroke: #000000; stroke-width: 0.8; stroke-linejoin: miter; stroke-linecap: square"/>
   </g>
   <g id="text_17">
    <!-- Vehicle Speed -->
    <g transform="translate(261.439974 20.88) scale(0.12 -0.12)">
     <defs>
      <path id="DejaVuSans-56" d="M 1831 0 
L 50 4666 
L 709 4666 
L 2188 738 
L 3669 4666 
L 4325 4666 
L 2547 0 
L 1831 0 
z
" transform="scale(0.015625)"/>
      <path id="DejaVuSans-68" d="M 3513 2113 
L 3513 0 
L 2938 0 
L 2938 2094 
Q 2938 2591 2744 2837 
Q 2550 3084 2163 3084 
Q 1697 3084 1428 2787 
Q 1159 2491 1159 1978 
L 1159 0 
L 581 0 
L 581 4863 
L 1159 4863 
L 1159 2956 
Q 1366 3272 1645 3428 
Q 1925 3584 2291 3584 
Q 2894 3584 3203 3211 
Q 3513 2838 3513 2113 
z
" transform="scale(0.015625)"/>
      <path id="DejaVuSans-63" d="M 3122 3366 
L 3122 2828 
Q 2878 2963 2633 3030 
Q 2388 3097 2138 3097 
Q 1578 3097 1268 2742 
Q 959 2388 959 1747 
Q 959 1106 1268 751 
Q 1578 397 2138 397 
Q 2388 397 2633 464 
Q 2878 531 3122 666 
L 3122 134 
Q 2881 22 2623 -34 
Q 2366 -91 2075 -91 
Q 1284 -91 818 406 
Q 353 903 353 1747 
Q 353 2603 823 3093 
Q 1294 3584 2113 3584 
Q 2378 3584 2631 3529 
Q 2884 3475 3122 3366 
z
" transform="scale(0.015625)"/>
      <path id="DejaVuSans-6c" d="M 603 4863 
L 1178 4863 
L 1178 0 
L 603 0 
L 603 4863 
z
" transform="scale(0.015625)"/>
      <path id="DejaVuSans-53" d="M 3425 4513 
L 3425 3897 
Q 3066 4069 2747 4153 
Q 2428 4238 2131 4238 
Q 1616 4238 1336 4038 
Q 1056 3838 1056 3469 
Q 1056 3159 1242 3001 
Q 1428 2844 1947 2747 
L 2328 2669 
Q 3034 2534 3370 2195 
Q 3706 1856 3706 1288 
Q 3706 609 3251 259 
Q 2797 -91 1919 -91 
Q 1588 -91 1214 -16 
Q 841 59 441 206 
L 441 856 
Q 825 641 1194 531 
Q 1563 422 1919 422 
Q 2459 422 2753 634 
Q 3047 847 3047 1241 
Q 3047 1584 2836 1778 
Q 2625 1972 2144 2069 
L 1759 2144 
Q 1053 2284 737 2584 
Q 422 2884 422 3419 
Q 422 4038 858 4394 
Q 1294 4750 2059 4750 
Q 2388 4750 2728 4690 
Q 3069 4631 3425 4513 
z
" transform="scale(0.015625)"/>
      <path id="DejaVuSans-70" d="M 1159 525 
L 1159 -1331 
L 581 -1331 
L 581 3500 
L 1159 3500 
L 1159 2969 
Q 1341 3281 1617 3432 
Q 1894 3584 2278 3584 
Q 2916 3584 3314 3078 
Q 3713 2572 3713 1747 
Q 3713 922 3314 415 
Q 2916 -91 2278 -91 
Q 1894 -91 1617 61 
Q 1341 213 1159 525 
z
M 3116 1747 
Q 3116 2381 2855 2742 
Q 2594 3103 2138 3103 
Q 1681 3103 1420 2742 
Q 1159 2381 1159 1747 
Q 1159 1113 1420 752 
Q 1681 391 2138 391 
Q 2594 391 2855 752 
Q 3116 1113 3116 1747 
z
" transform="scale(0.015625)"/>
      <path id="DejaVuSans-64" d="M 2906 2969 
L 2906 4863 
L 3481 4863 
L 3481 0 
L 2906 0 
L 2906 525 
Q 2725 213 2448 61 
Q 2172 -91 1784 -91 
Q 1150 -91 751 415 
Q 353 922 353 1747 
Q 353 2572 751 3078 
Q 1150 3584 1784 3584 
Q 2172 3584 2448 3432 
Q 2725 3281 2906 2969 
z
M 947 1747 
Q 947 1113 1208 752 
Q 1469 391 1925 391 
Q 2381 391 2643 752 
Q 2906 1113 2906 1747 
Q 2906 2381 2643 2742 
Q 2381 3103 1925 3103 
Q 1469 3103 1208 2742 
Q 947 2381 947 1747 
z
" transform="scale(0.015625)"/>
     </defs>
     <use xlink:href="#DejaVuSans-56"/>
     <use xlink:href="#DejaVuSans-65" transform="translate(60.658203 0)"/>
     <use xlink:href="#DejaVuSans-68" transform="translate(122.181641 0)"/>
     <use xlink:href="#DejaVuSans-69" transform="translate(185.560547 0)"/>
     <use xlink:href="#DejaVuSans-63" transform="translate(213.34375 0)"/>
     <use xlink:href="#DejaVuSans-6c" transform="translate(268.324219 0)"/>
     <use xlink:href="#DejaVuSans-65" transform="translate(296.107422 0)"/>
     <use xlink:href="#DejaVuSans-20" transform="translate(357.630859 0)"/>
     <use xlink:href="#DejaVuSans-53" transform="translate(389.417969 0)"/>
     <use xlink:href="#DejaVuSans-70" transform="translate(452.894531 0)"/>
     <use xlink:href="#DejaVuSans-65" transform="translate(516.371094 0)"/>
     <use xlink:href="#DejaVuSans-65" transform="translate(577.894531 0)"/>
     <use xlink:href="#DejaVuSans-64" transform="translate(639.417969 0)"/>
    </g>
   </g>
  </g>
 </g>
 <defs>
  <clipPath id="pafffd396d5">
   <rect x="44.57" y="26.88" width="518.092448" height="255.16"/>
  </clipPath>
 </defs>
</svg>
